<?xml version="1.0" encoding="utf-8"?>
<!-- Generator: Adobe Illustrator 16.0.0, SVG Export Plug-In . SVG Version: 6.00 Build 0)  -->
<!DOCTYPE svg PUBLIC "-//W3C//DTD SVG 1.1//EN" "http://www.w3.org/Graphics/SVG/1.1/DTD/svg11.dtd">
<svg version="1.1" id="Layer_1" xmlns="http://www.w3.org/2000/svg" xmlns:xlink="http://www.w3.org/1999/xlink" x="0px" y="0px"
	 width="76px" height="76px" viewBox="0 0 76 76" enable-background="new 0 0 76 76" xml:space="preserve">
<circle id="Circle-1" fill="none" stroke="#000000" stroke-miterlimit="10" cx="38" cy="38" r="37.5"/>
<g>
	<path id="Rectangle-2_1_" fill="#231F20" d="M42.9833984,22.7949219h6.6611328
		c1.3369141,0,2.4199219,1.0830078,2.4199219,2.4189453v25.5722656c0,1.3359375-1.0830078,2.4189453-2.4199219,2.4189453h-6.6611328
		c-1.3359375,0-2.4189453-1.0830078-2.4189453-2.4189453V25.2138672
		C40.5644531,23.8779297,41.6474609,22.7949219,42.9833984,22.7949219z"/>
	<path id="Rectangle-1" fill="#231F20" d="M26.3544922,22.7949219h6.6621094c1.3359375,0,2.4189453,1.0830078,2.4189453,2.4189453
		v25.5722656c0,1.3359375-1.0830078,2.4189453-2.4189453,2.4189453h-6.6621094
		c-1.3359375,0-2.4189453-1.0830078-2.4189453-2.4189453V25.2138672
		C23.9355469,23.8779297,25.0185547,22.7949219,26.3544922,22.7949219z"/>
</g>
</svg>
