<?xml version="1.0" encoding="utf-8"?>
<!-- Generator: Adobe Illustrator 16.0.0, SVG Export Plug-In . SVG Version: 6.00 Build 0)  -->
<!DOCTYPE svg PUBLIC "-//W3C//DTD SVG 1.1//EN" "http://www.w3.org/Graphics/SVG/1.1/DTD/svg11.dtd">
<svg version="1.1" xmlns="http://www.w3.org/2000/svg" xmlns:xlink="http://www.w3.org/1999/xlink" x="0px" y="0px"
  width="75px" height="75px" viewBox="0 0 75 75" enable-background="new 0 0 75 75" xml:space="preserve">
<g id="monitor--pause">
  <circle id="Circle-1" fill="none" stroke="#231F20" cx="37.5" cy="37.5" r="37"/>
  <g>
    <path id="Rectangle-4" fill="#231F20" d="M25.8544922,22.2949219h6.6621094c1.3359375,0,2.4189453,1.0830078,2.4189453,2.4189453
      v25.5722656c0,1.3359375-1.0830078,2.4189453-2.4189453,2.4189453h-6.6621094
      c-1.3359375,0-2.4189453-1.0830078-2.4189453-2.4189453V24.7138672
      C23.4355469,23.3779297,24.5185547,22.2949219,25.8544922,22.2949219z"/>
    <path id="Rectangle-4_1_" fill="#231F20" d="M42.4833984,22.2949219h6.6611328
      c1.3369141,0,2.4199219,1.0830078,2.4199219,2.4189453v25.5722656c0,1.3359375-1.0830078,2.4189453-2.4199219,2.4189453
      h-6.6611328c-1.3359375,0-2.4189453-1.0830078-2.4189453-2.4189453V24.7138672
      C40.0644531,23.3779297,41.1474609,22.2949219,42.4833984,22.2949219z"/>
  </g>
</g>
</svg>