<?xml version="1.0" encoding="UTF-8"?>
<svg width="42px" height="42px" viewBox="0 0 42 42" version="1.1" xmlns="http://www.w3.org/2000/svg" xmlns:xlink="http://www.w3.org/1999/xlink">
    <!-- Generator: Sketch 40.3 (33839) - http://www.bohemiancoding.com/sketch -->
    <title>female</title>
    <desc>Created with Sketch.</desc>
    <defs>
        <polygon id="path-1" points="24.5 0 0 0 0 29.749125 24.5 29.749125 24.5 6.21724894e-15"></polygon>
    </defs>
    <g id="hifi---FINAL" stroke="none" stroke-width="1" fill="none" fill-rule="evenodd">
        <g id="Signup-&gt;-personal-info-&gt;-choose-gender" transform="translate(-119.000000, -218.000000)">
            <g id="Page-1" transform="translate(117.000000, 218.000000)">
                <g id="female" transform="translate(2.000000, 0.000000)">
                    <g id="Group-3" transform="translate(8.750000, 0.000000)">
                        <mask id="mask-2" fill="white">
                            <use xlink:href="#path-1"></use>
                        </mask>
                        <g id="Clip-2"></g>
                        <path d="M3.13775,19.103875 C3.24275,19.103875 3.34775,19.121375 3.444,19.159875 C3.703,19.266625 3.92525,19.467875 3.99175,19.740875 C5.215,24.681125 8.53475,27.999125 12.25,27.999125 C15.96525,27.999125 19.28325,24.681125 20.50825,19.740875 C20.57475,19.467875 20.769,19.245625 21.02975,19.140625 C21.2905,19.035625 21.5845,19.061875 21.82075,19.210625 C22.1375,19.264875 22.75,18.325125 22.75,16.624125 C22.75,16.027375 22.66425,15.451625 22.49975,14.959875 C22.45075,14.811125 22.442,14.651875 22.477,14.497875 C22.6625,13.645625 22.75,12.931625 22.75,12.249125 C22.75,6.460125 18.04075,1.749125 12.25,1.749125 C6.45925,1.749125 1.75,6.460125 1.75,12.249125 C1.75,12.931625 1.8375,13.645625 2.023,14.497875 C2.058,14.651875 2.04925,14.811125 2.00025,14.959875 C1.83575,15.451625 1.75,16.027375 1.75,16.624125 C1.75,18.318125 2.408,19.249125 2.625,19.249125 C2.7755,19.156375 2.9575,19.103875 3.13775,19.103875 M12.25,29.749125 C7.93975,29.749125 4.1125,26.268375 2.52175,20.997375 C1.07625,20.913375 0,19.061875 0,16.624125 C0,15.932875 0.09275,15.252125 0.266,14.644875 C0.08575,13.762875 0,12.996375 0,12.249125 C0,5.495875 5.49675,-0.000875 12.25,-0.000875 C19.00325,-0.000875 24.5,5.495875 24.5,12.249125 C24.5,12.996375 24.41425,13.762875 24.234,14.644875 C24.40725,15.252125 24.5,15.932875 24.5,16.624125 C24.5,19.061875 23.42375,20.913375 21.97825,20.997375 C20.3875,26.268375 16.56025,29.749125 12.25,29.749125" id="Fill-1" fill="#979797" mask="url(#mask-2)"></path>
                    </g>
                    <path d="M1.75,40.25 L40.25,40.25 L40.25,39.8405 C40.25,35.74725 37.653,32.09325 33.78725,30.74925 L29.8165,29.3685 C27.335,31.87625 24.22525,33.25 21,33.25 C17.77475,33.25 14.665,31.87625 12.1835,29.3685 L8.21275,30.74925 C4.347,32.09325 1.75,35.7455 1.75,39.8405 L1.75,40.25 Z M41.125,42 L0.875,42 C0.392,42 0,41.608 0,41.125 L0,39.8405 C0,35.00175 3.0695,30.6845 7.63875,29.0955 L12.13975,27.531 C12.4705,27.41725 12.838,27.51 13.0725,27.7655 C15.27925,30.1735 18.095,31.5 21,31.5 C23.905,31.5 26.72075,30.1735 28.9275,27.7655 C29.162,27.51 29.5295,27.41725 29.8585,27.531 L34.36125,29.0955 C38.9305,30.6845 42,35.00175 42,39.8405 L42,41.125 C42,41.608 41.608,42 41.125,42 L41.125,42 Z" id="Fill-4" fill="#979797"></path>
                    <path d="M9.919,15.559425 C9.5725,15.559425 9.24175,15.349425 9.107,15.008175 C8.9285,14.558425 9.14725,14.050925 9.59525,13.870675 C9.65825,13.846175 15.75,11.354175 15.75,6.125175 C15.75,5.642175 16.142,5.250175 16.625,5.250175 C17.108,5.250175 17.5,5.642175 17.5,6.125175 C17.76425,7.276675 24.8745,13.809425 32.081,13.809425 C32.564,13.809425 32.956,14.201425 32.956,14.684425 C32.956,15.167425 32.564,15.559425 32.081,15.559425 C26.16425,15.559425 19.88,11.532675 17.15,8.541925 C15.73425,13.268675 10.4965,15.396675 10.241,15.498175 C10.136,15.540175 10.02575,15.559425 9.919,15.559425" id="Fill-6" fill="#979797"></path>
                    <path d="M18.375,17.5 L16.625,17.5 C16.142,17.5 15.75,17.108 15.75,16.625 C15.75,16.142 16.142,15.75 16.625,15.75 L18.375,15.75 C18.858,15.75 19.25,16.142 19.25,16.625 C19.25,17.108 18.858,17.5 18.375,17.5" id="Fill-8" fill="#979797"></path>
                    <path d="M25.375,17.5 L23.625,17.5 C23.142,17.5 22.75,17.108 22.75,16.625 C22.75,16.142 23.142,15.75 23.625,15.75 L25.375,15.75 C25.858,15.75 26.25,16.142 26.25,16.625 C26.25,17.108 25.858,17.5 25.375,17.5" id="Fill-10" fill="#979797"></path>
                    <path d="M14.87675,27.125 C14.84,27.125 14.805,27.12325 14.76825,27.11975 C14.02625,27.02875 7.441,26.18 5.5055,24.2445 C5.16425,23.9015 5.16425,23.3485 5.5055,23.0055 C7.1785,21.3325 8.75,15.07625 8.75,12.25 C8.75,11.767 9.142,11.375 9.625,11.375 C10.108,11.375 10.5,11.767 10.5,12.25 C10.5,14.85575 9.2435,20.70775 7.3815,23.457 C9.07375,24.3845 12.7505,25.109 14.98,25.38025 C15.46125,25.43975 15.80075,25.8755 15.743,26.35675 C15.6905,26.7995 15.3125,27.125 14.87675,27.125" id="Fill-12" fill="#979797"></path>
                    <path d="M27.12325,27.125 C26.6875,27.125 26.3095,26.7995 26.257,26.35675 C26.19925,25.8755 26.53875,25.43975 27.01825,25.38025 C29.2495,25.109 32.92625,24.3845 34.6185,23.457 C32.7565,20.70775 31.5,14.85575 31.5,12.25 C31.5,11.767 31.892,11.375 32.375,11.375 C32.858,11.375 33.25,11.767 33.25,12.25 C33.25,15.07625 34.81975,21.3325 36.49275,23.0055 C36.83575,23.3485 36.83575,23.9015 36.49275,24.2445 C34.559,26.18 27.97375,27.02875 27.23,27.11975 C27.195,27.12325 27.15825,27.125 27.12325,27.125" id="Fill-14" fill="#979797"></path>
                </g>
            </g>
        </g>
    </g>
</svg>