<?xml version="1.0" encoding="UTF-8"?>
<svg width="37px" height="37px" viewBox="0 0 37 37" version="1.1" xmlns="http://www.w3.org/2000/svg" xmlns:xlink="http://www.w3.org/1999/xlink">
    <!-- Generator: Sketch 40.3 (33839) - http://www.bohemiancoding.com/sketch -->
    <title>Page 1</title>
    <desc>Created with Sketch.</desc>
    <defs>
        <polygon id="path-1" points="36.9995375 12.875 0 12.875 0 0.0861951227 36.9995375 0.0861951227"></polygon>
        <polygon id="path-3" points="22.5827167 0 0.999383333 0 0.999383333 13.7077292 22.5827167 13.7077292 22.5827167 0"></polygon>
    </defs>
    <g id="hifi---FINAL" stroke="none" stroke-width="1" fill="none" fill-rule="evenodd">
        <g id="Signup-&gt;-personal-info-&gt;female-selected" transform="translate(-79.000000, -228.000000)">
            <g id="Page-1" transform="translate(79.000000, 228.000000)">
                <g id="female-selected">
                    <path d="M18.5,26.2083333 C14.702875,26.2083333 11.33125,23.1404167 9.929875,18.4984583 C8.65645833,18.4244583 7.70833333,16.793375 7.70833333,14.6458333 C7.70833333,13.9551667 7.811625,13.2799167 8.005875,12.6925417 C8.13845833,12.2901667 8.57475,12.0681667 8.98020833,12.205375 C9.38566667,12.3395 9.60458333,12.7757917 9.47045833,13.1797083 C9.32554167,13.611375 9.25,14.1185833 9.25,14.6458333 C9.25,16.1381667 9.82966667,16.9583333 10.0208333,16.9583333 C10.2320417,16.8272917 10.5157083,16.78875 10.7423333,16.8797083 C10.9705,16.9722083 11.1662917,17.1510417 11.224875,17.3915417 C12.3025,21.7436667 15.2270417,24.6666667 18.5,24.6666667 C21.7729583,24.6666667 24.6975,21.7436667 25.775125,17.3915417 C25.8337083,17.1510417 26.0048333,16.95525 26.2345417,16.86275 C26.46425,16.7687083 26.72325,16.7918333 26.931375,16.922875 C27.1934583,16.9814583 27.75,16.1427917 27.75,14.6458333 C27.75,14.1185833 27.6744583,13.611375 27.5295417,13.1797083 C27.3969583,12.7757917 27.6143333,12.3395 28.0197917,12.205375 C28.4221667,12.0681667 28.8615417,12.2901667 28.994125,12.6925417 C29.188375,13.2799167 29.2916667,13.9551667 29.2916667,14.6458333 C29.2916667,16.793375 28.3435417,18.4244583 27.070125,18.4984583 C25.66875,23.1404167 22.297125,26.2083333 18.5,26.2083333" id="Fill-1" fill="#979797"></path>
                    <g id="Group-5" transform="translate(0.000000, 24.125000)">
                        <mask id="mask-2" fill="white">
                            <use xlink:href="#path-1"></use>
                        </mask>
                        <g id="Clip-4"></g>
                        <path d="M30.2701625,1.50752083 L26.3049958,0.127729167 C26.0120792,0.0290625 25.6898708,0.109229167 25.4832875,0.335854167 C23.5407875,2.4571875 21.0602458,3.62577083 18.4995375,3.62577083 C15.9388292,3.62577083 13.4598292,2.4571875 11.5173292,0.335854167 C11.3092042,0.109229167 10.9869958,0.0290625 10.6956208,0.127729167 L6.7289125,1.50752083 C2.70362083,2.90735417 -0.0004625,6.71064583 -0.0004625,10.9718125 L-0.0004625,12.1049375 C-0.0004625,12.5304375 0.344870833,12.8757708 0.770370833,12.8757708 L36.2287042,12.8757708 C36.6557458,12.8757708 36.9995375,12.5304375 36.9995375,12.1049375 L36.9995375,10.9718125 C36.9995375,6.71064583 34.2954542,2.90735417 30.2701625,1.50752083" id="Fill-3" fill="#979797" mask="url(#mask-2)"></path>
                    </g>
                    <g id="Group-8" transform="translate(6.708333, 0.000000)">
                        <mask id="mask-4" fill="white">
                            <use xlink:href="#path-3"></use>
                        </mask>
                        <g id="Clip-7"></g>
                        <path d="M1.666925,13.6167708 C1.86734167,13.7231458 2.1063,13.7354792 2.31288333,13.6522292 C2.53796667,13.5643542 7.15371667,11.6881458 8.39938333,7.52564583 C10.805925,10.1603542 16.3405083,13.7077292 21.5528833,13.7077292 C21.9167167,13.7077292 22.229675,13.4548958 22.3067583,13.1003125 C22.4963833,12.2385208 22.5827167,11.5046875 22.5827167,10.7908958 C22.5827167,4.84160417 17.7418833,-0.000770833333 11.79105,-0.000770833333 C5.84175833,-0.000770833333 0.999383333,4.84160417 0.999383333,10.7908958 C0.999383333,11.5046875 1.08725833,12.2385208 1.27688333,13.1003125 C1.324675,13.3223125 1.46805,13.5103958 1.666925,13.6167708" id="Fill-6" fill="#979797" mask="url(#mask-4)"></path>
                    </g>
                    <path d="M16.1875,15.4166667 L14.6458333,15.4166667 C14.2203333,15.4166667 13.875,15.0713333 13.875,14.6458333 C13.875,14.2203333 14.2203333,13.875 14.6458333,13.875 L16.1875,13.875 C16.613,13.875 16.9583333,14.2203333 16.9583333,14.6458333 C16.9583333,15.0713333 16.613,15.4166667 16.1875,15.4166667" id="Fill-9" fill="#979797"></path>
                    <path d="M22.3541667,15.4166667 L20.8125,15.4166667 C20.387,15.4166667 20.0416667,15.0713333 20.0416667,14.6458333 C20.0416667,14.2203333 20.387,13.875 20.8125,13.875 L22.3541667,13.875 C22.7796667,13.875 23.125,14.2203333 23.125,14.6458333 C23.125,15.0713333 22.7796667,15.4166667 22.3541667,15.4166667" id="Fill-11" fill="#979797"></path>
                    <path d="M9.25,16.7016458 L9.25,10.7924375 C9.25,10.3653958 8.90466667,10.0216042 8.47916667,10.0216042 C8.05366667,10.0216042 7.70833333,10.3653958 7.70833333,10.7924375 C7.70833333,13.2806875 6.32545833,18.7936875 4.851625,20.2675208 C4.54945833,20.5681458 4.54945833,21.0568542 4.851625,21.3574792 C6.55516667,23.0625625 12.3564583,23.8102708 13.010125,23.8904375 C13.0425,23.8935208 13.0733333,23.8966042 13.1041667,23.8966042 C13.3770417,23.8966042 13.6329583,23.7516875 13.7717083,23.5111875 C13.925875,23.2429375 13.907375,22.9099375 13.7208333,22.6632708 L9.25,16.7016458 Z" id="Fill-13" fill="#979797"></path>
                    <path d="M32.1491458,20.2675208 C30.6753125,18.7936875 29.2908958,13.2806875 29.2908958,10.7924375 C29.2908958,10.3653958 28.9471042,10.0216042 28.5200625,10.0216042 C28.0945625,10.0216042 27.7492292,10.3653958 27.7492292,10.7924375 L27.7492292,16.7016458 L23.2783958,22.6632708 C23.0933958,22.9099375 23.0733542,23.2429375 23.2290625,23.5111875 C23.3678125,23.7516875 23.6237292,23.8966042 23.8950625,23.8966042 C23.9258958,23.8966042 23.9567292,23.8935208 23.9891042,23.8904375 C24.6443125,23.8102708 30.4440625,23.0625625 32.1491458,21.3574792 C32.4497708,21.0568542 32.4497708,20.5681458 32.1491458,20.2675208" id="Fill-15" fill="#979797"></path>
                </g>
            </g>
        </g>
    </g>
</svg>