<?xml version="1.0" encoding="UTF-8"?>
<svg width="38px" height="38px" viewBox="0 0 38 38" version="1.1" xmlns="http://www.w3.org/2000/svg" xmlns:xlink="http://www.w3.org/1999/xlink">
    <!-- Generator: Sketch 40.3 (33839) - http://www.bohemiancoding.com/sketch -->
    <title>Page 1</title>
    <desc>Created with Sketch.</desc>
    <defs>
        <polygon id="path-1" points="0.000316666667 13.25 38 13.25 38 0.114860499 0.000316666667 0.114860499"></polygon>
    </defs>
    <g id="hifi---FINAL" stroke="none" stroke-width="1" fill="none" fill-rule="evenodd">
        <g id="Signup-&gt;-personal-info-&gt;-gender-selected-&gt;-nickname-" transform="translate(-82.000000, -229.000000)">
            <g id="Page-1" transform="translate(82.000000, 229.000000)">
                <g id="male-selected">
                    <path d="M19,26.9166667 C15.10025,26.9166667 11.6359167,23.7658333 10.19825,18.9984167 C8.892,18.9224167 7.91666667,17.24725 7.91666667,15.0416667 C7.91666667,14.33075 8.02275,13.63725 8.22383333,13.0355833 C8.36158333,12.62075 8.80966667,12.3959167 9.22608333,12.53525 C9.64091667,12.673 9.86416667,13.1226667 9.72641667,13.5359167 C9.57758333,13.97925 9.5,14.5001667 9.5,15.0416667 C9.5,16.5743333 10.0953333,17.4166667 10.2916667,17.4166667 C10.507,17.2836667 10.79675,17.2409167 11.0326667,17.3375 C11.267,17.4325 11.4680833,17.6161667 11.52825,17.8615833 C12.6365833,22.3313333 15.6385833,25.3333333 19,25.3333333 C22.3614167,25.3333333 25.3634167,22.3313333 26.47175,17.8615833 C26.5319167,17.6161667 26.7076667,17.4135 26.942,17.3185 C27.1779167,17.2235 27.4439167,17.2456667 27.6576667,17.3786667 C27.93,17.4150833 28.5,16.57275 28.5,15.0416667 C28.5,14.5001667 28.4224167,13.97925 28.2735833,13.5359167 C28.1358333,13.1226667 28.3590833,12.673 28.7739167,12.53525 C29.18875,12.3959167 29.6368333,12.62075 29.7761667,13.0355833 C29.97725,13.63725 30.0833333,14.33075 30.0833333,15.0416667 C30.0833333,17.24725 29.108,18.9224167 27.80175,18.9984167 C26.3640833,23.7658333 22.89975,26.9166667 19,26.9166667" id="Fill-1" fill="#979797"></path>
                    <g id="Group-5" transform="translate(0.000000, 24.750000)">
                        <mask id="mask-2" fill="white">
                            <use xlink:href="#path-1"></use>
                        </mask>
                        <g id="Clip-4"></g>
                        <path d="M31.0890667,1.57529167 L27.0167333,0.158208333 C26.7190667,0.0552916667 26.38815,0.139208333 26.1728167,0.371958333 C24.1762333,2.550625 21.62865,3.75079167 19.0003167,3.75079167 C16.3719833,3.75079167 13.8244,2.550625 11.8278167,0.371958333 C11.6140667,0.139208333 11.2815667,0.0552916667 10.9839,0.158208333 L6.91156667,1.57529167 C2.77748333,3.01295833 0.000316666667,6.91904167 0.000316666667,11.295375 L0.000316666667,12.459125 C0.000316666667,12.896125 0.3534,13.2507917 0.791983333,13.2507917 L37.20865,13.2507917 C37.64565,13.2507917 38.0003167,12.896125 38.0003167,12.459125 L38.0003167,11.295375 C38.0003167,6.91904167 35.22315,3.01295833 31.0890667,1.57529167" id="Fill-3" fill="#979797" mask="url(#mask-2)"></path>
                    </g>
                    <path d="M19,0 C12.8883333,0 7.91666667,4.97166667 7.91666667,11.0833333 C7.91666667,11.818 8.00691667,12.5716667 8.20166667,13.45675 C8.28083333,13.8193333 8.60383333,14.0774167 8.97433333,14.0774167 C9.87208333,14.0774167 10.9535,14.2389167 10.9645833,14.2405 C11.0105,14.2484167 11.0516667,14.2515833 11.0991667,14.25 C11.5314167,14.2563333 11.9066667,13.9016667 11.9066667,13.4583333 C11.9066667,13.36175 11.88925,13.2715 11.8591667,13.186 C11.7625833,11.6058333 11.8623333,10.00825 12.0824167,9.50158333 L12.20275,9.50158333 C14.9403333,9.50158333 16.3035833,8.63233333 16.93375,7.53508333 C18.6405833,9.21975 22.07325,10.84425 25.3919167,11.0595833 C25.5803333,12.3895833 26.163,13.71325 26.1930833,13.77975 C26.3213333,14.0679167 26.6063333,14.25 26.9166667,14.25 C26.93725,14.25 26.9594167,14.2484167 26.9815833,14.2484167 L29.089,14.0758333 C29.43575,14.0473333 29.7223333,13.7955833 29.7983333,13.45675 C29.9930833,12.5716667 30.0833333,11.818 30.0833333,11.0833333 C30.0833333,4.97166667 25.1116667,0 19,0" id="Fill-6" fill="#979797"></path>
                    <path d="M16.625,15.8333333 L15.0416667,15.8333333 C14.6046667,15.8333333 14.25,15.4786667 14.25,15.0416667 C14.25,14.6046667 14.6046667,14.25 15.0416667,14.25 L16.625,14.25 C17.062,14.25 17.4166667,14.6046667 17.4166667,15.0416667 C17.4166667,15.4786667 17.062,15.8333333 16.625,15.8333333" id="Fill-8" fill="#979797"></path>
                    <path d="M22.9583333,15.8333333 L21.375,15.8333333 C20.938,15.8333333 20.5833333,15.4786667 20.5833333,15.0416667 C20.5833333,14.6046667 20.938,14.25 21.375,14.25 L22.9583333,14.25 C23.3953333,14.25 23.75,14.6046667 23.75,15.0416667 C23.75,15.4786667 23.3953333,15.8333333 22.9583333,15.8333333" id="Fill-10" fill="#979797"></path>
                </g>
            </g>
        </g>
    </g>
</svg>