<?xml version="1.0" encoding="UTF-8"?>
<svg width="42px" height="42px" viewBox="0 0 42 42" version="1.1" xmlns="http://www.w3.org/2000/svg" xmlns:xlink="http://www.w3.org/1999/xlink">
    <!-- Generator: Sketch 40.3 (33839) - http://www.bohemiancoding.com/sketch -->
    <title>male</title>
    <desc>Created with Sketch.</desc>
    <defs>
        <polygon id="path-1" points="24.5 0 0 0 0 29.749125 24.5 29.749125 24.5 6.21724894e-15"></polygon>
    </defs>
    <g id="hifi---FINAL" stroke="none" stroke-width="1" fill="none" fill-rule="evenodd">
        <g id="Signup-&gt;-personal-info-&gt;-choose-gender" transform="translate(-208.000000, -218.000000)">
            <g id="Page-1" transform="translate(208.000000, 218.000000)">
                <g id="male">
                    <g id="Group-3" transform="translate(8.750000, 0.000000)">
                        <mask id="mask-2" fill="white">
                            <use xlink:href="#path-1"></use>
                        </mask>
                        <g id="Clip-2"></g>
                        <path d="M3.13775,19.103875 C3.24275,19.103875 3.34775,19.121375 3.444,19.159875 C3.703,19.266625 3.92525,19.467875 3.99175,19.740875 C5.215,24.681125 8.53475,27.999125 12.25,27.999125 C15.96525,27.999125 19.28325,24.681125 20.50825,19.740875 C20.57475,19.467875 20.769,19.245625 21.02975,19.140625 C21.2905,19.035625 21.5845,19.061875 21.82075,19.210625 C22.1585,19.264875 22.75,18.325125 22.75,16.624125 C22.75,16.027375 22.66425,15.451625 22.49975,14.959875 C22.45075,14.811125 22.442,14.651875 22.477,14.497875 C22.6625,13.645625 22.75,12.931625 22.75,12.249125 C22.75,6.460125 18.04075,1.749125 12.25,1.749125 C6.45925,1.749125 1.75,6.460125 1.75,12.249125 C1.75,12.931625 1.8375,13.645625 2.023,14.497875 C2.058,14.651875 2.04925,14.811125 2.00025,14.959875 C1.83575,15.451625 1.75,16.027375 1.75,16.624125 C1.75,18.318125 2.408,19.249125 2.625,19.249125 C2.7755,19.156375 2.9575,19.103875 3.13775,19.103875 M12.25,29.749125 C7.93975,29.749125 4.1125,26.268375 2.52175,20.997375 C1.07625,20.913375 0,19.061875 0,16.624125 C0,15.932875 0.09275,15.252125 0.266,14.644875 C0.08575,13.762875 0,12.996375 0,12.249125 C0,5.495875 5.49675,-0.000875 12.25,-0.000875 C19.00325,-0.000875 24.5,5.495875 24.5,12.249125 C24.5,12.996375 24.41425,13.762875 24.234,14.644875 C24.40725,15.252125 24.5,15.932875 24.5,16.624125 C24.5,19.061875 23.42375,20.913375 21.97825,20.997375 C20.3875,26.268375 16.56025,29.749125 12.25,29.749125" id="Fill-1" fill="#979797" mask="url(#mask-2)"></path>
                    </g>
                    <path d="M1.75,40.25 L40.25,40.25 L40.25,39.8405 C40.25,35.74725 37.653,32.09325 33.78725,30.74925 L29.8165,29.3685 C27.335,31.87625 24.22525,33.25 21,33.25 C17.77475,33.25 14.665,31.87625 12.1835,29.3685 L8.21275,30.74925 C4.347,32.09325 1.75,35.7455 1.75,39.8405 L1.75,40.25 Z M41.125,42 L0.875,42 C0.392,42 0,41.608 0,41.125 L0,39.8405 C0,35.00175 3.0695,30.6845 7.63875,29.0955 L12.13975,27.531 C12.4705,27.41725 12.838,27.51 13.0725,27.7655 C15.27925,30.1735 18.095,31.5 21,31.5 C23.905,31.5 26.72075,30.1735 28.9275,27.7655 C29.162,27.51 29.5295,27.41725 29.8585,27.531 L34.36125,29.0955 C38.9305,30.6845 42,35.00175 42,39.8405 L42,41.125 C42,41.608 41.608,42 41.125,42 L41.125,42 Z" id="Fill-4" fill="#979797"></path>
                    <path d="M29.75,15.75 C29.407,15.75 29.092,15.54875 28.95025,15.23025 C28.917,15.15675 28.273,13.69375 28.06475,12.22375 C24.395,11.98575 20.5975,10.1885 18.71275,8.32475 C18.5535,8.60125 18.3575,8.85675 18.1265,9.086 C16.72475,10.48425 14.49875,10.51225 13.35425,10.50175 C13.09875,11.08625 12.99025,12.99025 13.12325,14.812 C13.1425,15.07625 13.03925,15.337 12.845,15.51725 C12.64725,15.6975 12.383,15.78325 12.11875,15.7395 C12.1065,15.73775 10.91125,15.55925 9.919,15.55925 C9.436,15.55925 9.044,15.16725 9.044,14.68425 C9.044,14.20125 9.436,13.80925 9.919,13.80925 C10.39325,13.80925 10.89725,13.84425 11.3225,13.8845 C11.27175,12.30075 11.35225,10.038 12.13625,9.19625 C12.4565,8.848 12.87825,8.7535 13.3665,8.75175 C14.42,8.75175 16.0405,8.69575 16.89275,7.84525 C17.30225,7.43925 17.5,6.87575 17.5,6.125 C17.5,5.642 17.892,5.25 18.375,5.25 C18.858,5.25 19.25,5.642 19.25,6.125 C19.3515,7.0035 23.73875,10.5 28.875,10.5 C29.358,10.5 29.75,10.892 29.75,11.375 C29.75,12.2395 30.086,13.307 30.324,13.951 L32.00925,13.81275 C32.48175,13.77775 32.914,14.13125 32.9525,14.61425 C32.991,15.0955 32.634,15.51725 32.15275,15.5575 L29.82175,15.74825 C29.79725,15.74825 29.7745,15.75 29.75,15.75" id="Fill-6" fill="#979797"></path>
                    <path d="M18.375,17.5 L16.625,17.5 C16.142,17.5 15.75,17.108 15.75,16.625 C15.75,16.142 16.142,15.75 16.625,15.75 L18.375,15.75 C18.858,15.75 19.25,16.142 19.25,16.625 C19.25,17.108 18.858,17.5 18.375,17.5" id="Fill-8" fill="#979797"></path>
                    <path d="M25.375,17.5 L23.625,17.5 C23.142,17.5 22.75,17.108 22.75,16.625 C22.75,16.142 23.142,15.75 23.625,15.75 L25.375,15.75 C25.858,15.75 26.25,16.142 26.25,16.625 C26.25,17.108 25.858,17.5 25.375,17.5" id="Fill-10" fill="#979797"></path>
                </g>
            </g>
        </g>
    </g>
</svg>