<?xml version="1.0" encoding="UTF-8"?>
<svg width="140px" height="117px" viewBox="0 0 140 117" version="1.1" xmlns="http://www.w3.org/2000/svg" xmlns:xlink="http://www.w3.org/1999/xlink">
    <!-- Generator: Sketch 40.3 (33839) - http://www.bohemiancoding.com/sketch -->
    <title>sensor</title>
    <desc>Created with Sketch.</desc>
    <defs>
        <radialGradient cx="40.5603558%" cy="2.46042216%" fx="40.5603558%" fy="2.46042216%" r="145.867125%" id="radialGradient-1">
            <stop stop-color="#B0B0B0" offset="0%"></stop>
            <stop stop-color="#787878" offset="100%"></stop>
        </radialGradient>
        <path d="M8.20716755,18.3983855 C8.20716755,18.3983855 51.2098813,0 55.1954091,0 C55.4692319,0 57.7345179,0.5906711 58.6345379,1.07871688 C70.8344333,7.69424501 131.212783,52.5433383 132.212783,53.5548258 C133.212783,54.5663133 133.08094,54.3656531 134.212783,55.5778007 C135.38132,56.8292462 136.807584,58.5165546 136.338855,60.7054491 C135.416115,65.0145025 78.0623716,98.0685418 73.6053821,100.273597 C71.9491324,101.093012 70.0690774,101.055691 68.5212981,100.73256 C65.9039831,100.18614 62.8660678,96.7971259 62.8660678,96.7971259 C62.8660678,96.7971259 2.87842084,27.5280646 1.21278278,25.2331766 C-0.452855279,22.9382886 8.20716755,18.3983855 8.20716755,18.3983855 Z" id="path-2"></path>
    </defs>
    <g id="hifi---FINAL" stroke="none" stroke-width="1" fill="none" fill-rule="evenodd">
        <g id="signup-&gt;-connect-1" transform="translate(-113.000000, -174.000000)">
            <g id="sensor" transform="translate(114.000000, 175.000000)">
                <g id="Path-28">
                    <use fill="url(#radialGradient-1)" fill-rule="evenodd" style="mix-blend-mode: screen;" xlink:href="#path-2"></use>
                    <use stroke="#A9A9A9" stroke-width="0.1" xlink:href="#path-2"></use>
                </g>
                <path d="M1.9732959,24.519887 C1.26072113,23.6754894 0.568740736,23.8812433 0.43464577,24.9804613 C0.43464577,24.9804613 -0.0783724007,28.7779744 0.0102999525,29.9754897 C0.23100871,32.9561496 0.68306514,36.6527358 0.68306514,36.6527358 C0.68306514,36.6527358 14.5358578,55.9737758 22.6865695,65.9374038 C29.0108735,73.6683868 37.9675955,84.9323951 45.8408664,93.9417983 C50.9965663,99.8414784 56.2977465,105.375022 61.3321072,109.570168 C64.0096795,111.801397 65.6836398,113.619995 69.00515,114.716212 C69.6655365,114.934164 73.28824,115.551771 76.9821523,113.619995 C84.3810496,109.750654 96.036228,101.659195 107.089475,94.5392208 C120.704844,85.7688501 128.393667,82.3048693 133.2,78.1758033 C138.006332,74.0467372 138.0103,73.9754897 138.0103,67.9754897 C138.0103,65.6819688 136.0103,57.9754897 136.0103,57.9754897 C136.0103,57.9754897 137.205619,59.9754897 133.2,62.9754897 C129.19438,65.9754897 74.0221994,98.7348944 72.5183415,99.585951 C71.0144837,100.437008 68.5075572,99.585951 68.5075572,99.585951 C68.5075572,99.585951 66.9026658,98.7542667 64.7376962,96.8303834 C63.4047359,95.6458586 61.47619,93.5641335 60.3954164,92.3820401 C44.84089,75.3693153 1.9732959,24.519887 1.9732959,24.519887 Z" id="Path-30" stroke="#A9A9A9" stroke-width="0.1" fill="#787878" opacity="0.98999995"></path>
                <path d="M0,30 C15.6138435,48.3564581 25.6274414,63.3841529 34.2943422,73.6738032 C60.0259795,104.22331 61.4292319,103.250884 63.1947083,105.097895 C64.315035,106.269962 68.6937132,107.731478 72.767836,106.934269 C77.2764134,106.052047 81.4584281,102.833313 81.4584281,102.833313 L137.806188,66.3659185" id="Path-31" stroke="#ED1C24" stroke-width="0.75"></path>
                <path d="M79,96.5944047 L79,111.837649 C79,111.837649 83.1122716,109.731752 87.6306534,106.826133 C93.6098865,102.981091 101.614336,97.6139914 106.757924,94.3350842 C113.09064,90.2981387 125.990707,82.5272237 125.990707,82.5272237 L125.990707,76.2778951 C125.990707,76.2778951 125.991964,70.7760034 125.990874,68.5627642 C125.990849,68.5120262 125.990707,69.3994161 125.990707,68.0067159 C125.990707,66.6140157 125.754075,66.7977926 124.351426,67.7591573 C122.948777,68.7205221 101.90381,80.569758 90.9911627,87.2778951 C86.6201485,89.9648106 84.7237426,91.3014345 79.8465283,94.2778951 C79.1168623,94.7231948 79,96.5944047 79,96.5944047 Z" id="Path-32" fill="#ED1C24"></path>
                <polygon id="Path-29" stroke="#979797" stroke-width="0.5" points="18 24.3543569 26.0087891 22 29.2862033 25.3184382 35.4090581 30.4548161 45.0489586 27.0486897 40.3739388 22.3688786 21.6812105 28.2616293"></polygon>
            </g>
        </g>
    </g>
</svg>