<?xml version="1.0" encoding="UTF-8"?>
<svg width="19px" height="24px" viewBox="0 0 19 24" version="1.1" xmlns="http://www.w3.org/2000/svg" xmlns:xlink="http://www.w3.org/1999/xlink" style="background: #FFFFFF;">
    <!-- Generator: Sketch 40.3 (33839) - http://www.bohemiancoding.com/sketch -->
    <title>bell icon </title>
    <desc>Created with Sketch.</desc>
    <defs></defs>
    <g id="hifi---FINAL" stroke="none" stroke-width="1" fill="none" fill-rule="evenodd">
        <g id="Settings-" transform="translate(-16.000000, -256.000000)">
            <g id="lines" transform="translate(-1.000000, 202.000000)"></g>
            <g id="bell-icon---line" transform="translate(16.000000, 256.000000)" fill="#000000">
                <g id="bell-icon-">
                    <path d="M9.5,3 C6.467,3 4,5.468 4,8.5 C4,12.638 1.76,17.56 1.073,18.97 C1.025,19.069 1,19.176 1,19.285 C1,19.68 1.321,20 1.715,20 L17.285,20 C17.679,20 18,19.68 18,19.285 C18,19.176 17.975,19.069 17.927,18.97 C17.24,17.559 15,12.638 15,8.5 C15,5.468 12.533,3 9.5,3 M17.285,21 L1.715,21 C0.769,21 0,20.23 0,19.285 C0,19.023 0.059,18.77 0.174,18.532 C0.646,17.564 3,12.524 3,8.5 C3,4.916 5.916,2 9.5,2 C13.084,2 16,4.916 16,8.5 C16,12.524 18.354,17.564 18.826,18.532 C18.941,18.77 19,19.023 19,19.285 C19,20.23 18.231,21 17.285,21" id="Fill-1"></path>
                    <path d="M9.5,24 C7.57,24 6,22.43 6,20.5 C6,20.224 6.224,20 6.5,20 C6.776,20 7,20.224 7,20.5 C7,21.879 8.122,23 9.5,23 C10.878,23 12,21.879 12,20.5 C12,20.224 12.224,20 12.5,20 C12.776,20 13,20.224 13,20.5 C13,22.43 11.43,24 9.5,24" id="Fill-3"></path>
                    <path d="M11.5,3 C11.224,3 11,2.776 11,2.5 C11,1.673 10.327,1 9.5,1 C8.673,1 8,1.673 8,2.5 C8,2.776 7.776,3 7.5,3 C7.224,3 7,2.776 7,2.5 C7,1.121 8.122,0 9.5,0 C10.878,0 12,1.121 12,2.5 C12,2.776 11.776,3 11.5,3" id="Fill-5"></path>
                </g>
            </g>
        </g>
    </g>
</svg>