<?xml version="1.0" encoding="utf-8"?>
<!-- Generator: Adobe Illustrator 16.0.0, SVG Export Plug-In . SVG Version: 6.00 Build 0)  -->
<!DOCTYPE svg PUBLIC "-//W3C//DTD SVG 1.1//EN" "http://www.w3.org/Graphics/SVG/1.1/DTD/svg11.dtd">
<svg version="1.1" id="Layer_1" xmlns="http://www.w3.org/2000/svg" xmlns:xlink="http://www.w3.org/1999/xlink" x="0px" y="0px"
  width="12px" height="23px" viewBox="0 0 12 23" enable-background="new 0 0 12 23" xml:space="preserve">
<g id="settings--arrow">
  <defs>
    <filter id="Adobe_OpacityMaskFilter" filterUnits="userSpaceOnUse" x="0" y="0" width="12" height="23">
      <feColorMatrix  type="matrix" values="1 0 0 0 0  0 1 0 0 0  0 0 1 0 0  0 0 0 1 0"/>
    </filter>
  </defs>
  <mask maskUnits="userSpaceOnUse" x="0" y="0" width="12" height="23" id="mask-2">
    <g filter="url(#Adobe_OpacityMaskFilter)">
      <polygon id="path-1" fill="#FFFFFF" points="12,0 0,0 0,23 12,23"/>
    </g>
  </mask>
  <path id="Fill-1" mask="url(#mask-2)" d="M0.5,0c0.1279297,0,0.2558594,0.0488281,0.3535156,0.1464844l11,11
    c0.1953125,0.1953125,0.1953125,0.5117188,0,0.7070312l-11,11c-0.1953125,0.1953125-0.5117188,0.1953125-0.7070312,0
    s-0.1953125-0.5117188,0-0.7070312L10.7929688,11.5L0.1464844,0.8535156c-0.1953125-0.1953125-0.1953125-0.5117188,0-0.7070312
    C0.2441406,0.0488281,0.3720703,0,0.5,0"/>
</g>
</svg>
