<?xml version="1.0" encoding="UTF-8"?>
<svg width="14px" height="24px" viewBox="0 0 14 24" version="1.1" xmlns="http://www.w3.org/2000/svg" xmlns:xlink="http://www.w3.org/1999/xlink" style="background: #FFFFFF;">
    <!-- Generator: Sketch 40.3 (33839) - http://www.bohemiancoding.com/sketch -->
    <title>phone icon</title>
    <desc>Created with Sketch.</desc>
    <defs></defs>
    <g id="hifi---FINAL" stroke="none" stroke-width="1" fill="none" fill-rule="evenodd">
        <g id="Settings-" transform="translate(-19.000000, -301.000000)">
            <g id="lines" transform="translate(-1.000000, 202.000000)"></g>
            <g id="phone-icon---line" transform="translate(19.000000, 301.000000)" fill="#000000">
                <g id="phone-icon">
                    <path d="M3.5,1 C2.122,1 1,2.121 1,3.5 L1,20.5 C1,21.879 2.122,23 3.5,23 L10.5,23 C11.878,23 13,21.879 13,20.5 L13,3.5 C13,2.121 11.878,1 10.5,1 L3.5,1 Z M10.5,24 L3.5,24 C1.57,24 0,22.43 0,20.5 L0,3.5 C0,1.57 1.57,0 3.5,0 L10.5,0 C12.43,0 14,1.57 14,3.5 L14,20.5 C14,22.43 12.43,24 10.5,24 L10.5,24 Z" id="Fill-1"></path>
                    <path d="M13.5,5 L0.5,5 C0.224,5 0,4.776 0,4.5 C0,4.224 0.224,4 0.5,4 L13.5,4 C13.776,4 14,4.224 14,4.5 C14,4.776 13.776,5 13.5,5" id="Fill-3"></path>
                    <path d="M13.5,19 L0.5,19 C0.224,19 0,18.776 0,18.5 C0,18.224 0.224,18 0.5,18 L13.5,18 C13.776,18 14,18.224 14,18.5 C14,18.776 13.776,19 13.5,19" id="Fill-5"></path>
                    <path d="M7,22 C6.449,22 6,21.552 6,21 C6,20.448 6.449,20 7,20 C7.551,20 8,20.448 8,21 C8,21.552 7.551,22 7,22" id="Fill-7"></path>
                    <path d="M8.5,3 L5.5,3 C5.224,3 5,2.776 5,2.5 C5,2.224 5.224,2 5.5,2 L8.5,2 C8.776,2 9,2.224 9,2.5 C9,2.776 8.776,3 8.5,3" id="Fill-9"></path>
                    <path d="M10.52,3 C10.244,3 10.015,2.776 10.015,2.5 C10.015,2.224 10.234,2 10.51,2 L10.52,2 C10.796,2 11.02,2.224 11.02,2.5 C11.02,2.776 10.796,3 10.52,3" id="Fill-11"></path>
                    <path d="M8.4141,12.5859 C8.2861,12.5859 8.1581,12.5369 8.0601,12.4399 C7.4941,11.8729 6.5061,11.8729 5.9391,12.4399 C5.7441,12.6349 5.4281,12.6349 5.2321,12.4399 C5.0371,12.2439 5.0371,11.9279 5.2321,11.7319 C6.1761,10.7869 7.8241,10.7869 8.7681,11.7319 C8.9631,11.9279 8.9631,12.2439 8.7681,12.4399 C8.6701,12.5369 8.5421,12.5859 8.4141,12.5859" id="Fill-13"></path>
                    <path d="M9.8286,11.1719 C9.7006,11.1719 9.5726,11.1229 9.4746,11.0259 C8.1096,9.6599 5.8896,9.6599 4.5246,11.0259 C4.3296,11.2209 4.0136,11.2209 3.8176,11.0259 C3.6226,10.8299 3.6226,10.5139 3.8176,10.3179 C5.5726,8.5649 8.4276,8.5649 10.1826,10.3179 C10.3776,10.5139 10.3776,10.8299 10.1826,11.0259 C10.0846,11.1229 9.9566,11.1719 9.8286,11.1719" id="Fill-15"></path>
                    <path d="M11.2427,9.7578 C11.1147,9.7578 10.9867,9.7088 10.8887,9.6118 C9.8497,8.5718 8.4697,7.9998 6.9997,7.9998 C5.5307,7.9998 4.1497,8.5718 3.1107,9.6118 C2.9157,9.8068 2.5987,9.8068 2.4037,9.6118 C2.2087,9.4158 2.2087,9.0998 2.4037,8.9038 C3.6317,7.6768 5.2637,6.9998 6.9997,6.9998 C8.7367,6.9998 10.3687,7.6768 11.5967,8.9038 C11.7917,9.0998 11.7917,9.4158 11.5967,9.6118 C11.4987,9.7088 11.3707,9.7578 11.2427,9.7578" id="Fill-17"></path>
                    <path d="M7,15 C6.449,15 6,14.552 6,14 C6,13.448 6.449,13 7,13 C7.551,13 8,13.448 8,14 C8,14.552 7.551,15 7,15" id="Fill-19"></path>
                </g>
            </g>
        </g>
    </g>
</svg>