<?xml version="1.0" encoding="UTF-8"?>
<svg width="24px" height="23px" viewBox="0 0 24 23" version="1.1" xmlns="http://www.w3.org/2000/svg" xmlns:xlink="http://www.w3.org/1999/xlink" style="background: #FFFFFF;">
    <!-- Generator: Sketch 40.3 (33839) - http://www.bohemiancoding.com/sketch -->
    <title>profile icon</title>
    <desc>Created with Sketch.</desc>
    <defs></defs>
    <g id="hifi---FINAL" stroke="none" stroke-width="1" fill="none" fill-rule="evenodd">
        <g id="Settings-" transform="translate(-13.000000, -212.000000)">
            <g id="lines" transform="translate(-1.000000, 202.000000)"></g>
            <g id="profile-icon---line" transform="translate(13.000000, 212.000000)" fill="#000000">
                <g id="profile-icon">
                    <path d="M1,22 L23,22 L23,21.766 C23,19.427 21.516,17.339 19.307,16.571 L17.038,15.782 C15.62,17.215 13.843,18 12,18 C10.157,18 8.38,17.215 6.962,15.782 L4.693,16.571 C2.484,17.339 1,19.426 1,21.766 L1,22 Z M23.5,23 L0.5,23 C0.224,23 0,22.776 0,22.5 L0,21.766 C0,19.001 1.754,16.534 4.365,15.626 L6.937,14.732 C7.126,14.667 7.336,14.72 7.47,14.866 C8.731,16.242 10.34,17 12,17 C13.66,17 15.269,16.242 16.53,14.866 C16.664,14.72 16.874,14.667 17.062,14.732 L19.635,15.626 C22.246,16.534 24,19.001 24,21.766 L24,22.5 C24,22.776 23.776,23 23.5,23 L23.5,23 Z" id="Fill-1"></path>
                    <path d="M6.791,9.918 C6.852,9.918 6.912,9.929 6.967,9.951 C7.115,10.012 7.241,10.127 7.279,10.282 C7.978,13.104 9.876,15 12,15 C14.124,15 16.021,13.104 16.721,10.282 C16.759,10.127 16.869,10 17.017,9.939 C17.162,9.879 17.33,9.892 17.468,9.977 C17.637,9.993 18,9.47 18,8.5 C18,7.583 17.663,7.058 17.521,7.004 C17.517,7.005 17.512,7.006 17.507,7.006 C17.357,7.018 17.209,6.969 17.102,6.862 C16.997,6.755 16.944,6.606 16.96,6.457 L16.974,6.332 C16.986,6.222 17,6.113 17,6 C17,3.243 14.757,1 12,1 C9.243,1 7,3.243 7,6 C7,6.113 7.014,6.222 7.026,6.332 L7.04,6.457 C7.056,6.606 7.003,6.755 6.897,6.862 C6.791,6.967 6.639,7.017 6.493,7.006 C6.488,7.006 6.483,7.005 6.478,7.004 C6.337,7.058 6,7.583 6,8.5 C6,9.468 6.376,10 6.5,10 C6.585,9.948 6.688,9.918 6.791,9.918 M12,16 C9.535,16 7.347,14.01 6.439,10.998 C5.614,10.948 5,9.891 5,8.5 C5,7.367 5.407,6.456 6.004,6.13 C6.001,6.087 6,6.044 6,6 C6,2.691 8.691,0 12,0 C15.309,0 18,2.691 18,6 C18,6.044 17.999,6.087 17.996,6.13 C18.593,6.456 19,7.367 19,8.5 C19,9.891 18.386,10.948 17.56,10.998 C16.653,14.01 14.465,16 12,16" id="Fill-3"></path>
                </g>
            </g>
        </g>
    </g>
</svg>