<?xml version="1.0" encoding="UTF-8"?>
<svg width="71px" height="60px" viewBox="0 0 71 60" version="1.1" xmlns="http://www.w3.org/2000/svg" xmlns:xlink="http://www.w3.org/1999/xlink">
    <!-- Generator: Sketch 40.3 (33839) - http://www.bohemiancoding.com/sketch -->
    <title>Sensor - small</title>
    <desc>Created with Sketch.</desc>
    <defs>
        <radialGradient cx="40.5603558%" cy="2.46042216%" fx="40.5603558%" fy="2.46042216%" r="145.867125%" id="radialGradient-1">
            <stop stop-color="#B0B0B0" offset="0%"></stop>
            <stop stop-color="#787878" offset="100%"></stop>
        </radialGradient>
        <path d="M4.13310596,9.27918571 C4.13310596,9.27918571 25.7891489,0 27.7962492,0 C27.9341455,0 29.0749371,0.297903685 29.5281846,0.544048515 C35.6720168,3.88057574 66.0783798,26.5001185 66.5819769,27.01026 C67.0855741,27.5204015 67.0191786,27.419199 67.5891712,28.030543 C68.177643,28.6617068 68.8959055,29.5126971 68.6598548,30.6166613 C68.1951658,32.789923 39.3119857,49.4606558 37.0674586,50.5727707 C36.233376,50.9860406 35.2865857,50.967218 34.5071285,50.8042475 C33.1890563,50.5286621 31.6591709,48.81942 31.6591709,48.81942 C31.6591709,48.81942 1.44956445,13.8837195 0.610753919,12.7262978 C-0.228056616,11.568876 4.13310596,9.27918571 4.13310596,9.27918571 Z" id="path-2"></path>
    </defs>
    <g id="hifi---FINAL" stroke="none" stroke-width="1" fill="none" fill-rule="evenodd">
        <g id="Settings-4" transform="translate(-16.000000, -69.000000)">
            <g id="Sensor---small" transform="translate(17.000000, 70.000000)">
                <g id="Path-28">
                    <use fill="url(#radialGradient-1)" fill-rule="evenodd" style="mix-blend-mode: screen;" xlink:href="#path-2"></use>
                    <use stroke="#A9A9A9" stroke-width="0.5" xlink:href="#path-2"></use>
                </g>
                <path d="M0.993746136,12.3665517 C0.634895532,11.9406816 0.288043473,12.0314264 0.220936356,12.5815918 C0.220936356,12.5815918 -0.0394681155,14.5141088 0.00518702644,15.1180731 C0.116335322,16.6213624 0.343989639,18.4857276 0.343989639,18.4857276 C0.343989639,18.4857276 7.32021618,28.2302521 11.4248911,33.2553863 C14.6097924,37.1544907 19.1203718,42.8354688 23.0853284,47.3793418 C25.681724,50.3548326 28.3513831,53.1456631 30.8866727,55.2614762 C32.2350904,56.3867915 33.078092,57.3039977 34.750795,57.8568723 C35.0833637,57.9667955 36.9077467,58.2782843 38.7679904,57.3039977 C42.4940538,55.352504 48.3635681,51.2715942 53.9299517,47.6806505 C60.7866121,43.2573331 64.6586813,41.5102819 67.0791366,39.4277964 C69.4995918,37.3453109 69.5015899,37.3093774 69.5015899,34.2832905 C69.5015899,33.1265582 68.4943957,29.2398122 68.4943957,29.2398122 C68.4943957,29.2398122 69.0963551,30.2485079 67.0791366,31.7615513 C65.0619181,33.2745948 37.2773666,49.7967294 36.5200281,50.2259579 C35.7626896,50.6551864 34.5002087,50.2259579 34.5002087,50.2259579 C34.5002087,50.2259579 33.69199,49.8064997 32.6017175,48.8361934 C31.9304425,48.2387809 30.9592324,47.1888673 30.4149579,46.5926811 C22.5817432,38.0123503 0.993746136,12.3665517 0.993746136,12.3665517 Z" id="Path-30" stroke="#A9A9A9" stroke-width="0.5" fill="#787878" opacity="0.98999995"></path>
                <path d="M0,15.1304348 C7.86308663,24.3884745 12.9059058,31.9676597 17.270532,37.1572225 C30.2289106,52.5648001 30.9355844,52.0743589 31.8246733,53.005895 C32.3888666,53.5970242 34.5939563,54.334137 36.6456728,53.9320661 C38.9161794,53.4871194 41.02223,51.8637579 41.02223,51.8637579 L69.3987995,33.4715067" id="Path-31" stroke="#ED1C24" stroke-width="0.5"></path>
                <path d="M39.7841727,48.717178 L39.7841727,56.4050749 C39.7841727,56.4050749 41.8551008,55.3429705 44.1305449,53.8775281 C47.1416694,51.9382892 51.1726871,49.2314044 53.7629834,47.5776946 C56.9521206,45.54167 63.4485575,41.6224259 63.4485575,41.6224259 L63.4485575,38.4705906 C63.4485575,38.4705906 63.4491908,35.6957235 63.4486414,34.5794811 C63.4486288,34.5538915 63.4485575,35.0014446 63.4485575,34.2990393 C63.4485575,33.596634 63.3293903,33.6893215 62.6230204,34.1741837 C61.9166504,34.6590459 51.3184657,40.6351823 45.8228877,44.0184167 C43.6216575,45.3735566 42.666633,46.04768 40.2104819,47.5488514 C39.8430242,47.7734374 39.7841727,48.717178 39.7841727,48.717178 Z" id="Path-32" fill="#ED1C24"></path>
                <polygon id="Path-29" stroke="#979797" stroke-width="0.5" points="9.0647482 12.283067 13.0979513 11.0956522 14.7484477 12.7692993 17.8318997 15.3598203 22.6865259 13.6419478 20.3321994 11.2816953 10.9185952 14.2536913"></polygon>
            </g>
        </g>
    </g>
</svg>