<?xml version="1.0" encoding="UTF-8"?>
<svg width="24px" height="24px" viewBox="0 0 24 24" version="1.1" xmlns="http://www.w3.org/2000/svg" xmlns:xlink="http://www.w3.org/1999/xlink" style="background: #FFFFFF;">
    <!-- Generator: Sketch 40.3 (33839) - http://www.bohemiancoding.com/sketch -->
    <title>support icon - line</title>
    <desc>Created with Sketch.</desc>
    <defs></defs>
    <g id="hifi---FINAL" stroke="none" stroke-width="1" fill="none" fill-rule="evenodd">
        <g id="Settings-" transform="translate(-14.000000, -434.000000)" fill="#000000">
            <g id="Help" transform="translate(11.000000, 358.000000)">
                <g id="support-icon---line" transform="translate(3.000000, 75.000000)">
                    <path d="M18.5,14 C16.019,14 14,16.019 14,18.5 C14,20.981 16.019,23 18.5,23 C20.981,23 23,20.981 23,18.5 C23,16.019 20.981,14 18.5,14 M18.5,24 C15.467,24 13,21.532 13,18.5 C13,15.468 15.467,13 18.5,13 C21.533,13 24,15.468 24,18.5 C24,21.532 21.533,24 18.5,24" id="Fill-1"></path>
                    <path d="M18.5,22 C18.37,22 18.25,21.95 18.15,21.859 C18.05,21.76 18,21.63 18,21.5 C18,21.37 18.05,21.24 18.15,21.149 C18.34,20.96 18.67,20.96 18.85,21.14 C18.95,21.24 19,21.37 19,21.5 C19,21.63 18.95,21.76 18.85,21.85 C18.76,21.95 18.63,22 18.5,22" id="Fill-3"></path>
                    <path d="M18.5,20 L18.499,20 C18.223,20 17.999,19.775 18,19.499 L18.001,18.499 C18.002,18.263 18.168,18.059 18.4,18.011 L18.509,17.989 C19.526,17.803 20,17.488 20,17 C20,16.458 19.312,16 18.498,16 C17.715,16 17.042,16.425 16.998,16.946 C16.975,17.222 16.729,17.419 16.458,17.402 C16.183,17.379 15.979,17.138 16.002,16.862 C16.091,15.801 17.165,15 18.498,15 C19.878,15 21,15.898 21,17 C21,17.955 20.328,18.597 19.001,18.908 L19,19.501 C18.999,19.776 18.776,20 18.5,20" id="Fill-5"></path>
                    <path d="M6.5,8 C6.224,8 6,8.225 6,8.5 C6,8.775 6.224,9 6.5,9 C6.776,9 7,8.775 7,8.5 C7,8.225 6.776,8 6.5,8 M6.5,10 C5.673,10 5,9.327 5,8.5 C5,7.673 5.673,7 6.5,7 C7.327,7 8,7.673 8,8.5 C8,9.327 7.327,10 6.5,10" id="Fill-7"></path>
                    <path d="M11.5,8 C11.224,8 11,8.225 11,8.5 C11,8.775 11.224,9 11.5,9 C11.776,9 12,8.775 12,8.5 C12,8.225 11.776,8 11.5,8 M11.5,10 C10.673,10 10,9.327 10,8.5 C10,7.673 10.673,7 11.5,7 C12.327,7 13,7.673 13,8.5 C13,9.327 12.327,10 11.5,10" id="Fill-9"></path>
                    <path d="M16.5,8 C16.224,8 16,8.225 16,8.5 C16,8.775 16.224,9 16.5,9 C16.776,9 17,8.775 17,8.5 C17,8.225 16.776,8 16.5,8 M16.5,10 C15.673,10 15,9.327 15,8.5 C15,7.673 15.673,7 16.5,7 C17.327,7 18,7.673 18,8.5 C18,9.327 17.327,10 16.5,10" id="Fill-11"></path>
                    <path d="M3.5,23 C3.386,23 3.272,22.961 3.18,22.884 C3.001,22.735 2.949,22.483 3.053,22.276 L5.691,17 L3.5,17 C1.57,17 0,15.43 0,13.5 L0,3.5 C0,1.57 1.57,0 3.5,0 L19.5,0 C21.43,0 23,1.57 23,3.5 L23,13 C23,13.276 22.776,13.5 22.5,13.5 C22.224,13.5 22,13.276 22,13 L22,3.5 C22,2.121 20.878,1 19.5,1 L3.5,1 C2.122,1 1,2.121 1,3.5 L1,13.5 C1,14.879 2.122,16 3.5,16 L6.5,16 C6.673,16 6.834,16.09 6.925,16.237 C7.017,16.385 7.025,16.568 6.947,16.724 L4.895,20.829 L11.2,16.1 C11.287,16.035 11.392,16 11.5,16 L12,16 C12.276,16 12.5,16.224 12.5,16.5 C12.5,16.776 12.276,17 12,17 L11.666,17 L3.8,22.9 C3.711,22.967 3.605,23 3.5,23" id="Fill-13"></path>
                </g>
            </g>
        </g>
    </g>
</svg>