<?xml version="1.0" encoding="UTF-8"?>
<svg width="24px" height="24px" viewBox="0 0 24 24" version="1.1" xmlns="http://www.w3.org/2000/svg" xmlns:xlink="http://www.w3.org/1999/xlink">
    <!-- Generator: Sketch 40.3 (33839) - http://www.bohemiancoding.com/sketch -->
    <title>tutorial icon - line</title>
    <desc>Created with Sketch.</desc>
    <defs></defs>
    <g id="hifi---FINAL" stroke="none" stroke-width="1" fill="none" fill-rule="evenodd">
        <g id="Settings-" transform="translate(-14.000000, -391.000000)" fill="#000000">
            <g id="Help" transform="translate(11.000000, 358.000000)">
                <g id="tutorial-icon---line" transform="translate(3.000000, 33.000000)">
                    <g id="tutorial-icon">
                        <path d="M5.5,1 C3.019,1 1,3.019 1,5.5 L1,18.5 C1,20.981 3.019,23 5.5,23 L18.5,23 C20.981,23 23,20.981 23,18.5 L23,5.5 C23,3.019 20.981,1 18.5,1 L5.5,1 Z M18.5,24 L5.5,24 C2.467,24 0,21.533 0,18.5 L0,5.5 C0,2.467 2.467,0 5.5,0 L18.5,0 C21.533,0 24,2.467 24,5.5 L24,18.5 C24,21.533 21.533,24 18.5,24 L18.5,24 Z" id="Fill-1"></path>
                        <path d="M9,8.416 L9,15.584 L14.575,12 L9,8.416 Z M8.5,17 C8.417,17 8.335,16.979 8.26,16.939 C8.1,16.851 8,16.683 8,16.5 L8,7.5 C8,7.317 8.1,7.149 8.26,7.061 C8.421,6.974 8.617,6.979 8.77,7.08 L15.77,11.58 C15.914,11.671 16,11.83 16,12 C16,12.17 15.914,12.329 15.77,12.42 L8.77,16.92 C8.688,16.974 8.594,17 8.5,17 L8.5,17 Z" id="Fill-3"></path>
                        <path d="M15,16.5 L15,7.5 C15,7.224 15.224,7 15.5,7 C15.776,7 16,7.224 16,7.5 L16,16.5 C16,16.776 15.776,17 15.5,17 C15.224,17 15,16.776 15,16.5 Z" id="Fill-5"></path>
                    </g>
                </g>
            </g>
        </g>
    </g>
</svg>